<?xml version="1.0" encoding="utf-8"?>
<?xml-stylesheet type="text/xsl" href="rss1.xsl"?>
<rss version="2.0" xmlns:atom="http://www.w3.org/2005/Atom" xmlns:content="http://purl.org/rss/1.0/modules/content/" xmlns:dc="http://purl.org/dc/elements/1.1/" xmlns:media="http://search.yahoo.com/mrss/">
<channel>
 <title>Getty</title>
 <link>http://www.gettyimg.com/</link>
 <atom:link href="http://www.gettyimg.com/" rel="self" type="application/rss+xml" />

 
                <item>
                <title><![CDATA[【Music Videos】Bon Jovi - You Give Love A Bad Name [1080p AM | PCM 24-bit 48 kHz | DTS-HD MA 5.1 | DD+ Dolby Atmos]]]></title>
                <link><![CDATA[https://sharemania.us/threads/bon-jovi-you-give-love-a-bad-name-1080p-am-pcm-24-bit-48-khz-dts-hd-ma-5-1-dd-dolby-atmos.240553/]]></link>
                <description><![CDATA[<article>
<blockquote class="messageText SelectQuoteContainer ugc baseHtml">
<img src="https://images2.imgbox.com/c0/bf/xK2H0daz_o.jpg" class="bbCodeImage LbImage" alt="[​IMG]" data-url="https://images2.imgbox.com/c0/bf/xK2H0daz_o.jpg" style=""><br>
<br>
<b>Genre: <span style="color: #0059b3">Rock</span> <br>
Style: <span style="color: #0059b3">Hard Rock, Pop Rock</span> <br>
Year: <span style="color: #0059b3">1986</span> <br>
Video Source: <span style="color: #0059b3">Apple Music, thanks SonMaxime</span><br>
Audio Source: <span style="color: #0059b3">Blu-ray (Slippery When Wet) &amp; Tidal, thanks BbbDdd345</span></b><br>
<br>
"<b>You Give Love a Bad Name</b>" is a song by American rock band Bon Jovi, released as the first single from their 1986 album <i>Slippery When Wet</i>. Written by Jon Bon Jovi, Richie Sambora, and Desmond Child about a woman who has jilted her lover, the song reached No. 1 on the U.S. <i>Billboard</i> Hot 100 on November 29, 1986, and became the band's first number-one hit. In 2007, the song re-entered the charts at No. 29 after Blake Lewis performed it on <i>American Idol</i>. Despite the lyrics of the chorus, the song should not be confused with "Shot Through the Heart", an unrelated song from Bon Jovi's 1984 self-titled debut album.<br>
<br>
The chorus tune of "You Give Love a Bad Name" was originally recorded by Bonnie Tyler under the title "If You Were a Woman (And I Was a Man)" with different lyrics commissioned by its producer Jim Steinman. Dissatisfied with its success in the US and the UK (which he attributed to reticence on the part of her label in promoting it), Desmond Child re-wrote the song with Jon Bon Jovi and Richie Sambora.<br>
<br>
The music video for the song used all-color concert footage (the only all-color video song from <i>Slippery When Wet</i>) and photogenic shots primarily of Jon Bon Jovi, as well as other band members in concert. This video was filmed at the Olympic Auditorium in Los Angeles, California. Bon Jovi was now being managed by Doc McGhee, who realized that Bon Jovi needed a video for MTV. Doc hired video director Wayne Isham, who had directed videos for Doc's other band, Mötley Crüe. The two bands were competitive with each other and Mötley Crüe felt betrayed that Wayne would direct one of Bon Jovi's videos. Wayne had the band's name painted on the stage and made sure that the band did not see it until they began shooting. Bon Jovi had been opening for 38 Special but became a headlining act after the video debuted.<br>
<br>
<b>Release Info</b><br>
The video track is downloaded from Apple Music and left as is. It has the best quality that I could find.<br>
The music videos on the Blu-ray are 480i and the quality of both are too bad to create an upscale.<br>
All audio tracks are synced by muxing (by modifying the delay =<b>&gt;</b> no quality loss).<br>
The timed lyrics are synced and edited. Enable the subtitles to see the lyrics.<br>
<br>
<div class="ToggleTriggerAnchor bbCodeSpoilerContainer">
<button type="button" class="button bbCodeSpoilerButton ToggleTrigger Tooltip JsOnly" data-target="> .SpoilerTarget"><span>Spoiler: <span class="SpoilerTitle">Media Info</span></span></button>
<div class="SpoilerTarget bbCodeSpoilerText">
<div class="bbCodeBlock bbCodeCode">
<div class="type">Code:</div>
<pre>General
Unique ID                      : 336065407051008720951819969542688252887 (0xFCD3D7D383FFFACC559FA55E5D0EA3D7)
Complete name                  : Bon Jovi - You Give Love A Bad Name.mkv
Format                         : Matroska
Format version                 : Version 4 / Version 2
File size                      : 510 MiB
Duration                       : 3 min 46 s
Overall bit rate               : 18.9 Mb/s
Frame rate                     : 29.970 FPS
Encoded date                   : 2024-03-23 09:58:14 UTC
Writing application            : mkvmerge v83.0 ('Circle Of Friends') 64-bit
Writing library                : libebml v1.4.5 + libmatroska v1.7.1
Cover                          : Yes
Attachments                    : cover.jpg

Video
ID                             : 1
Format                         : AVC
Format/Info                    : Advanced Video Codec
Format profile                 : High@L4
Format settings                : CABAC / 5 Ref Frames
Format settings, CABAC         : Yes
Format settings, Reference fra : 5 frames
Format settings, Slice count   : 8 slices per frame
Codec ID                       : V_MPEG4/ISO/AVC
Duration                       : 3 min 45 s
Bit rate                       : 10.0 Mb/s
Width                          : 1 432 pixels
Height                         : 1 080 pixels
Display aspect ratio           : 4:3
Frame rate mode                : Constant
Frame rate                     : 29.970 (30000/1001) FPS
Color space                    : YUV
Chroma subsampling             : 4:2:0
Bit depth                      : 8 bits
Scan type                      : Progressive
Bits/(Pixel*Frame)             : 0.216
Stream size                    : 269 MiB (53%)
Language                       : English
Default                        : Yes
Forced                         : No
Color range                    : Limited
Color primaries                : BT.709
Transfer characteristics       : BT.709
Matrix coefficients            : BT.709

Audio #1
ID                             : 2
ID in the original source medi : 4352 (0x1100)
Format                         : PCM
Format settings                : Little / Signed
Codec ID                       : A_PCM/INT/LIT
Duration                       : 3 min 46 s
Bit rate mode                  : Constant
Bit rate                       : 2 304 kb/s
Channel(s)                     : 2 channels
Sampling rate                  : 48.0 kHz
Frame rate                     : 30.000 FPS (1600 SPF)
Bit depth                      : 24 bits
Delay relative to video        : 9 ms
Stream size                    : 62.3 MiB (12%)
Language                       : English
Default                        : Yes
Forced                         : No
Original source medium         : Blu-ray

Audio #2
ID                             : 3
ID in the original source medi : 4353 (0x1101)
Format                         : DTS XLL
Format/Info                    : Digital Theater Systems
Commercial name                : DTS-HD Master Audio
Codec ID                       : A_DTS
Duration                       : 3 min 46 s
Bit rate mode                  : Variable / Constant
Bit rate                       : 5 856 kb/s / 1 509 kb/s
Channel(s)                     : 6 channels
Channel layout                 : C L R Ls Rs LFE
Sampling rate                  : 48.0 kHz
Frame rate                     : 93.750 FPS (512 SPF)
Bit depth                      : 24 bits
Compression mode               : Lossless / Lossy
Delay relative to video        : 7 ms
Stream size                    : 158 MiB (31%)
Language                       : English
Default                        : No
Forced                         : No
Original source medium         : Blu-ray

Audio #3
ID                             : 4
Format                         : E-AC-3 JOC
Format/Info                    : Enhanced AC-3 with Joint Object Coding
Commercial name                : Dolby Digital Plus with Dolby Atmos
Codec ID                       : A_EAC3
Duration                       : 3 min 43 s
Bit rate mode                  : Constant
Bit rate                       : 768 kb/s
Channel(s)                     : 6 channels
Channel layout                 : L R C LFE Ls Rs
Sampling rate                  : 48.0 kHz
Frame rate                     : 31.250 FPS (1536 SPF)
Compression mode               : Lossy
Delay relative to video        : 1 s 899 ms
Stream size                    : 20.5 MiB (4%)
Title                          : Dolby Atmos
Language                       : English
Service kind                   : Complete Main
Default                        : No
Forced                         : No
Complexity index               : 16
Number of dynamic objects      : 15
Bed channel count              : 1 channel
Bed channel configuration      : LFE

Text
ID                             : 5
Format                         : UTF-8
Codec ID                       : S_TEXT/UTF8
Codec ID/Info                  : UTF-8 Plain Text
Duration                       : 3 min 35 s
Bit rate                       : 53 b/s
Frame rate                     : 0.232 FPS
Count of elements              : 50
Stream size                    : 1.40 KiB (0%)
Title                          : Lyrics
Language                       : English
Default                        : No
Forced                         : No
</pre>
</div></div>
</div><br>
<b>Note to the peeps @ RuTracker: Give credit if you post the work of someone else!</b><br>
- Hurby4 aka ADHDerby<br>
<br>
<div class="bbCodeBlock bbCodeVfcHH HiddenContent">
<div class="attribution type">Hidden Content:</div>
<blockquote>You must reply before you can see the hidden data contained here.</blockquote>
</div>
<div class="messageTextEndMarker">&nbsp;</div>
</blockquote>
</article>]]></description>
                <author><![CDATA[ADHDerby]]></author>
                </item>

                
                <item>
                <title><![CDATA[【Requests】[REQ AUD] - WE DON'T TRUST YOU Future &amp; Metro Boomin 24b/96k FLAC]]></title>
                <link><![CDATA[https://sharemania.us/threads/we-dont-trust-you-future-metro-boomin-24b-96k-flac.240554/]]></link>
                <description><![CDATA[<article>
<blockquote class="messageText SelectQuoteContainer ugc baseHtml">
<span style="font-size: 22px"><b>24b/96k FLAC ?</b><br>
</span>
<div class="messageTextEndMarker">&nbsp;</div>
</blockquote>
</article>]]></description>
                <author><![CDATA[Deadpool]]></author>
                </item>

                </channel></rss>